<svg fill="none" height="37" viewBox="0 0 170 37" width="170" xmlns="http://www.w3.org/2000/svg" xmlns:xlink="http://www.w3.org/1999/xlink"><clipPath id="a"><path d="m0 0h170v37h-170z"/></clipPath><g clip-path="url(#a)" fill="#0054ff"><path d="m112.9 8.93726h-4.906v17.76904h4.906z"/><path d="m149.663 8.48194c-2.207 0-3.853 1.03561-4.981 2.46826v-10.494878h-4.906v26.253778h4.906v-9.9951c0-2.4627 1.566-4.1757 3.918-4.1757 2.351 0 3.615 1.5187 3.615 4.2507v9.9173h4.906v-10.3282c0-4.7394-3.252-7.89616-7.458-7.89616z"/><path d="m130.489 8.93727v2.24613c-1.322-1.61866-3.162-2.70147-5.4-2.70147-5.337 0-8.388 4.35897-8.388 9.33987s3.051 9.3399 8.388 9.3399c2.151 0 3.937-1.0023 5.247-2.521v2.9013c0 2.9042-1.271 4.5395-4.434 4.5395-2.304 0-3.898-.9607-4.536-2.968l-4.165 1.6742c1.133 3.3261 4.767 5.4834 8.701 5.4834 5.3 0 9.34-3.3511 9.34-8.7318v-18.60203zm-4.587 14.03203c-2.932 0-4.295-2.3017-4.295-5.1475s1.363-5.1475 4.295-5.1475c2.646 0 4.434 2.0435 4.434 5.1475s-1.788 5.1475-4.434 5.1475z"/><path d="m170 12.9771v-4.03973h-3.473v-6.22472h-4.906v6.22472h-2.457v4.03973h2.457v7.76c0 4.0092 3.176 6.4247 6.88 6.4247.503 0 1.027-.0611 1.497-.1555v-4.0119s-.314.0638-.692.0638c-1.518 0-2.779-.6635-2.779-2.7042v-7.3797h3.473z"/><path d="m110.449 5.42512c1.498 0 2.712-1.21446 2.712-2.71256 0-1.49811-1.214-2.71256-2.712-2.71256s-2.713 1.21445-2.713 2.71256c0 1.4981 1.215 2.71256 2.713 2.71256z"/><path d="m104.193 17.8218c0-5.1947-4.039-9.33987-9.3395-9.33987-5.3001 0-9.3398 4.14517-9.3398 9.33987s4.0397 9.3399 9.3398 9.3399c3.0735 0 5.5445-1.2522 7.1795-3.1929l-3.2647-2.5404c-1.0106 1.1799-1.9824 1.6797-3.9148 1.6797-2.2905 0-3.6954-1.4687-4.2062-3.4844h13.3767c.108-.5831.169-1.1828.169-1.7991zm-9.3395-5.2863c2.3655 0 3.7288 1.466 4.2174 3.4844h-8.4347c.4914-2.0184 1.8574-3.4844 4.2173-3.4844z"/><path d="m8.88453 17.8245c0-4.9004 3.98697-8.88455 8.88457-8.88455s8.8845 3.98415 8.8845 8.88455-3.9869 8.8845-8.8845 8.8845-8.88457-3.9841-8.88457-8.8845zm-8.88453 0c0 9.8146 7.95443 17.7691 17.7691 17.7691 9.8146 0 17.769-7.9545 17.769-17.7691 0-9.81465-7.9544-17.7690801-17.769-17.7690801-9.81467 0-17.7691 7.9544301-17.7691 17.7690801z"/><path d="m45.533 8.93994h-8.8846v17.76906h8.8846z"/><path d="m72.1863 8.93994h-8.8845v17.76906h8.8845z"/><path d="m63.302 26.709h-17.769v8.8845h17.769z"/><path d="m63.302.0554199h-17.769v8.8845301h17.769z"/></g></svg>