<?xml version="1.0" encoding="UTF-8" standalone="no"?>
<svg
   width="512"
   height="512"
   viewBox="63.79 27.03 13.8 13.8"
   version="1.1"
   id="svg5"
   fill="rgb(255, 0, 0)"
   xmlns="http://www.w3.org/2000/svg"
   xmlns:svg="http://www.w3.org/2000/svg">
   <path
      id="path453"
      style="stroke-width: 0.3; stroke-dasharray: none; font-family: [object Object]; font-size: 16.9px; font-weight: 500; line-height: 125%; letter-spacing: 0px; word-spacing: 0px"
      d="M 66.6 27.8 l -0.3 1.3 h 5.3 c 0.5 0 0.8 0 1 0.3 c 0.2 0.3 0.1 0.5 0 1.1 l -0.6 2.6 c -0.1 0.5 -0.2 0.8 -0.5 1.1 c -0.3 0.3 -0.6 0.3 -1.1 0.3 H 69.1 L 69.7 31.8 h -4 l -1.8 7.9 h 4 l 0.9 -4 h 5.3 c 0.5 0 0.8 0 1.1 -0.3 c 0.3 -0.3 0.4 -0.5 0.5 -1.1 l 1.2 -5.3 C 77 28.6 77 28.3 76.8 28 C 76.6 27.8 76.4 27.8 75.8 27.8 Z"
   />
</svg>
