<svg xmlns="http://www.w3.org/2000/svg" width="82mm" height="12.5mm" fill="#DCDCDC" viewBox="59.5 27.5 82 12.5"><path d="m62.178 27.781-.294 1.323h5.292c.53 0 .794 0 1 .265.206.264.147.529.03 1.058l-.587 2.646c-.117.53-.176.794-.5 1.058-.322.265-.587.265-1.116.265H64.68l.586-2.646h-3.968l-1.76 7.938h3.969l.88-3.97h5.291c.53 0 .794 0 1.117-.264.324-.264.382-.529.5-1.058l1.173-5.292c.117-.529.176-.794-.03-1.058-.206-.265-.47-.265-1-.265Z" style="font-weight:500;font-size:16.9003px;line-height:125%;font-family:Aero;letter-spacing:0;word-spacing:0;stroke-width:.265;stroke-dasharray:none"/><path d="m74.084 27.781-.293 1.323c1.628.005 5.29 0 5.29 0 .53 0 .795 0 1 .265.207.264.148.529.034 1.042l-.59 2.662c-.117.53-.212.823-.499 1.058-.323.265-.588.265-1.117.265h-1.323l.587-2.646h-3.969l-1.76 7.938h3.969l.88-3.97h1.323l.443 3.97h3.969l-.443-3.97c.529 0 .793 0 1.117-.264.323-.264.381-.529.499-1.058l1.173-5.292c.117-.529.176-.794-.03-1.058-.206-.265-.47-.265-1-.265ZM86.896 27.775c-.252 0-.419.038-.7.27-.409.328-.37.507-.5 1.06v.002c1.717-.006 3.54-.004 5.246-.003.576 0 .84 0 1.046.265.206.264.147.529.038 1.023l-1.474 6.646c-.118.533-.176.797-.5 1.062-.323.265-.753.265-1.117.265-.363 0-.793 0-1-.265-.205-.265-.146-.53-.031-1.05l1.175-5.3H85.11l-1.466 6.615c-.13.552-.226.72.03 1.058.267.327.447.264 1 .264h7.937c.54 0 .708.063 1.117-.264.409-.338.37-.506.5-1.058l2.052-9.26c.13-.553.238-.732-.03-1.06-.256-.337-.447-.264-1-.264h-7.937c-.169 0-.302-.007-.417-.006zM97.896 27.781l-.293 1.323c3.273-.012 6.298 0 9.26 0l.294-1.323zm1.766 3.969-1.76 7.938h3.97l1.76-7.938zM109.378 27.81c-.252 0-.42.038-.7.27-.409.327-.37.507-.5 1.059v.003c1.717-.007 3.54-.004 5.246-.003.575 0 .84 0 1.046.265.206.264.147.529.038 1.023l-1.474 6.646c-.118.533-.176.797-.5 1.062-.323.264-.753.264-1.117.264-.363 0-.793 0-1-.264-.205-.265-.147-.53-.031-1.05l1.175-5.3h-3.969l-1.466 6.614c-.13.552-.226.72.03 1.059.267.326.447.264 1 .264h7.937c.54 0 .708.062 1.117-.264.408-.338.37-.507.499-1.059l2.053-9.26c.13-.552.237-.732-.03-1.058-.256-.338-.448-.265-1-.265h-7.937c-.17 0-.302-.007-.417-.007zM120.386 27.781l.709 6.35 2.203-3.968-.266-2.382zm5.292 0-4.406 7.938-.88 3.968h3.969l.88-3.968 4.405-7.938zM132.292 27.781c-.54 0-.794 0-1.117.265-.323.264-.382.529-.499 1.058 1.858.012 5.292 0 5.292 0 .529 0 .793 0 1 .265.205.264.147.529.03 1.058l-.88 3.969h-2.646l.586-2.646h-3.969l-1.76 7.938h3.97l.88-3.97h2.645l-.88 3.97h3.969l2.346-10.584c.13-.552.176-.794-.03-1.058-.206-.265-.47-.265-1-.265z" style="font-weight:500;font-size:16.9003px;line-height:125%;font-family:Aero;letter-spacing:0;word-spacing:0;stroke-width:.264583"/></svg>